<svg width="97" height="24" viewBox="0 0 97 24" fill="none" xmlns="http://www.w3.org/2000/svg">
<g clip-path="url(#clip0_27_7891)">
<path fill-rule="evenodd" clip-rule="evenodd" d="M37.6803 7.00957L36.877 6.40706L37.2258 6.03772C37.2027 5.44423 37.4755 4.73775 37.9952 4.15193C38.5651 3.5096 39.3145 3.14481 39.9453 3.15821L40.2912 2.79199L40.8937 3.59534L40.8829 3.60684C41.35 4.22691 41.1642 5.34473 40.3611 6.25027C39.5097 7.20942 38.3396 7.50855 37.6832 7.00648L37.6803 7.00957Z" fill="url(#paint0_linear_27_7891)"/>
<path d="M39.8117 5.68712C40.7245 4.65829 40.9033 3.32632 40.2109 2.71209C39.5186 2.09786 38.2174 2.43397 37.3046 3.46281C36.3918 4.49165 36.2131 5.82361 36.9054 6.43784C37.5977 7.05207 38.8989 6.71596 39.8117 5.68712Z" fill="url(#paint1_linear_27_7891)"/>
<path d="M39.8244 5.69847C40.7316 4.67594 40.9001 3.34407 40.2009 2.72366C39.5016 2.10325 38.1993 2.42923 37.2921 3.45176C36.3849 4.4743 36.2163 5.80617 36.9156 6.42658C37.6148 7.04699 38.9172 6.72101 39.8244 5.69847Z" fill="#0052FE"/>
<path d="M10.3802 12.0667L19.2748 2.53662H14.5447L5.09816 12.4596V2.53662H0.847656V22.2684H5.09816V17.6162L7.58131 15.0391L13.4964 22.2684H18.4876L10.9819 12.8243L10.3802 12.0659V12.0667Z" fill="#0052FE"/>
<path d="M32.9822 11.3061C31.6599 9.20854 29.2338 7.91113 26.2759 7.91113C23.1147 7.91113 20.548 9.39411 19.2964 11.7439C18.7558 12.7505 18.4609 13.9194 18.4609 15.1959C18.4609 19.4552 21.7595 22.4806 26.2759 22.4806C30.7923 22.4806 34.066 19.4552 34.066 15.1959C34.066 13.7282 33.6763 12.4059 32.9822 11.3061V11.3061ZM26.2759 19.1138C24.2161 19.1138 22.6311 17.6413 22.6311 15.1959C22.6311 13.0927 23.8008 11.7094 25.4388 11.3639C25.7063 11.3053 25.9867 11.2764 26.2759 11.2764C26.4791 11.2764 26.6744 11.2892 26.8664 11.3205C28.6249 11.5744 29.8934 12.9891 29.8934 15.1959C29.8934 17.6413 28.3365 19.1138 26.2767 19.1138H26.2759Z" fill="#0052FE"/>
<path d="M40.9308 8.12158H36.812V22.2693H40.9308V8.12158Z" fill="#0052FE"/>
<path d="M53.3951 7.91113C51.4671 7.91113 49.8034 8.56988 48.6947 9.77811V8.12161H44.7607V22.2694H48.8787V15.2738C48.8787 14.2455 49.1004 13.4349 49.4949 12.8332C50.0926 11.9054 51.0887 11.4627 52.2865 11.4627C53.9052 11.4627 54.9191 12.2926 55.1247 14.08C55.1512 14.3034 55.1641 14.546 55.1641 14.8014V22.2686H57.4327L59.2853 19.6962V14.1716C59.2853 9.85684 56.7491 7.91113 53.3951 7.91113V7.91113Z" fill="#0052FE"/>
<path d="M80.6954 2.46973L60.4888 22.2698H66.7782L68.6243 19.6453L79.0798 4.76891L80.6954 2.46973Z" fill="url(#paint2_linear_27_7891)"/>
<path d="M74.7393 2.46973L74.0935 3.36787L63.9528 17.4554L60.4888 22.2698L80.6954 2.46973H74.7393Z" fill="url(#paint3_linear_27_7891)"/>
<path d="M78.6955 18.8119L78.4344 18.4423C78.2167 18.1338 77.8624 17.9507 77.4864 17.9507H72.733C72.5571 17.9507 72.4205 18.0551 72.3555 18.1941L81.1417 22.2695L78.6955 18.8119Z" fill="#F69300"/>
<path d="M72.3552 18.1943C72.2973 18.3181 72.2965 18.4691 72.3825 18.6008L73.3586 20.0862H73.361L74.7966 22.2697H81.1422L72.356 18.1943H72.3552Z" fill="url(#paint4_linear_27_7891)"/>
<path d="M69.4987 6.13428L67.994 3.92508L67.0027 2.47021H60.7944L69.4015 6.70466C69.5702 6.57853 69.6337 6.33271 69.4995 6.13428H69.4987Z" fill="url(#paint5_linear_27_7891)"/>
<path d="M60.7935 2.46955L63.4421 6.28786C63.4533 6.30312 63.4638 6.31598 63.475 6.33124C63.6943 6.61804 64.0342 6.78754 64.3973 6.78754H69.1531C69.2503 6.78754 69.333 6.7538 69.4013 6.70319L60.7943 2.46875L60.7935 2.46955Z" fill="#F69300"/>
<path d="M89.4298 3.22562H87.7573V7.61189H86.6271V3.22562H84.9775V2.39014H89.4298V3.22562ZM91.5417 2.39014L92.9459 6.16141L94.3444 2.39014H95.8227V7.61189H94.6811V6.16141L94.8067 3.68977L93.3283 7.61189H92.5578L91.0851 3.69558L91.1993 6.16141V7.61189H90.0748V2.39014H91.5417V2.39014Z" fill="black"/>
</g>
<defs>
<linearGradient id="paint0_linear_27_7891" x1="40.9941" y1="3.79619" x2="37.9815" y2="7.31088" gradientUnits="userSpaceOnUse">
<stop stop-color="#3372F5"/>
<stop offset="0.249995" stop-color="#3372F5"/>
<stop offset="0.505208" stop-color="#80DBFB"/>
<stop offset="0.838547" stop-color="#3372F5"/>
<stop offset="1" stop-color="#3372F5"/>
</linearGradient>
<linearGradient id="paint1_linear_27_7891" x1="45.4545" y1="3.78449" x2="44.6486" y2="4.6917" gradientUnits="userSpaceOnUse">
<stop stop-color="#0080D4"/>
<stop offset="0.47" stop-color="white"/>
<stop offset="0.6" stop-color="#F1F8FC"/>
<stop offset="1" stop-color="#007DCC"/>
</linearGradient>
<linearGradient id="paint2_linear_27_7891" x1="76.1556" y1="7.78307" x2="68.327" y2="16.84" gradientUnits="userSpaceOnUse">
<stop stop-color="#FFAC00"/>
<stop offset="1" stop-color="#FE7801"/>
</linearGradient>
<linearGradient id="paint3_linear_27_7891" x1="60.4888" y1="12.3702" x2="80.6954" y2="12.3702" gradientUnits="userSpaceOnUse">
<stop stop-color="#FFCE00"/>
<stop offset="1" stop-color="#FFB003"/>
</linearGradient>
<linearGradient id="paint4_linear_27_7891" x1="72.3142" y1="20.2324" x2="81.1414" y2="20.2324" gradientUnits="userSpaceOnUse">
<stop stop-color="#FE8B01"/>
<stop offset="1" stop-color="#FE7801"/>
</linearGradient>
<linearGradient id="paint5_linear_27_7891" x1="60.7936" y1="4.58703" x2="69.5718" y2="4.58703" gradientUnits="userSpaceOnUse">
<stop stop-color="#FFCE00"/>
<stop offset="1" stop-color="#FFC101"/>
</linearGradient>
<clipPath id="clip0_27_7891">
<rect width="96" height="24" fill="white" transform="translate(0.847656)"/>
</clipPath>
</defs>
</svg>
